<svg xmlns="http://www.w3.org/2000/svg" width="72" height="72" viewBox="0 0 72 72">
  <g id="phone" transform="translate(-219 -213)">
    <circle id="Ellipse_1" data-name="Ellipse 1" cx="36" cy="36" r="36" transform="translate(219 213)" fill="#91dc5a"/>
    <g id="icon" transform="translate(236.386 225)">
      <path id="Path_2" data-name="Path 2" d="M29.364,0H9.4A3.453,3.453,0,0,0,5.951,3.456V43.99A3.451,3.451,0,0,0,9.4,47.442H29.364a3.453,3.453,0,0,0,3.452-3.452V3.456A3.455,3.455,0,0,0,29.364,0ZM14.458,2.1h9.854c.249,0,.451.372.451.832s-.2.833-.451.833H14.458c-.251,0-.449-.373-.449-.833S14.208,2.1,14.458,2.1Zm4.927,41.932a2.2,2.2,0,1,1,2.2-2.206A2.207,2.207,0,0,1,19.386,44.031ZM30.23,36.478H8.539V5.831H30.23V36.478Z" fill="#fff"/>
    </g>
  </g>
</svg>
