<?xml version="1.0" encoding="UTF-8"?>
<svg xmlns="http://www.w3.org/2000/svg" xmlns:xlink="http://www.w3.org/1999/xlink" width="350px" height="350px" viewBox="0 0 350 350" version="1.1">
<g id="surface1">
<path style=" stroke:none;fill-rule:nonzero;fill:rgb(84.705882%,94.901961%,79.607843%);fill-opacity:1;" d="M 177.507812 88.5 C 177.507812 137.378906 137.769531 177 88.753906 177 C 39.738281 177 0 137.378906 0 88.5 C 0 39.621094 39.738281 0 88.753906 0 C 137.769531 0 177.507812 39.621094 177.507812 88.5 Z M 177.507812 88.5 "/>
<path style=" stroke:none;fill-rule:nonzero;fill:rgb(84.705882%,94.901961%,79.607843%);fill-opacity:1;" d="M 177.507812 261.5 C 177.507812 310.378906 137.769531 350 88.753906 350 C 39.738281 350 0 310.378906 0 261.5 C 0 212.621094 39.738281 173 88.753906 173 C 137.769531 173 177.507812 212.621094 177.507812 261.5 Z M 177.507812 261.5 "/>
<path style=" stroke:none;fill-rule:nonzero;fill:rgb(84.705882%,94.901961%,79.607843%);fill-opacity:1;" d="M 350 88.5 C 350 137.378906 310.261719 177 261.246094 177 C 212.230469 177 172.492188 137.378906 172.492188 88.5 C 172.492188 39.621094 212.230469 0 261.246094 0 C 310.261719 0 350 39.621094 350 88.5 Z M 350 88.5 "/>
<path style=" stroke:none;fill-rule:nonzero;fill:rgb(84.705882%,94.901961%,79.607843%);fill-opacity:1;" d="M 350 261.5 C 350 310.378906 310.261719 350 261.246094 350 C 212.230469 350 172.492188 310.378906 172.492188 261.5 C 172.492188 212.621094 212.230469 173 261.246094 173 C 310.261719 173 350 212.621094 350 261.5 Z M 350 261.5 "/>
</g>
</svg>
