<svg xmlns="http://www.w3.org/2000/svg" width="72" height="72" viewBox="0 0 72 72">
  <g id="email" transform="translate(-219 -213)">
    <circle id="Ellipse_1" data-name="Ellipse 1" cx="36" cy="36" r="36" transform="translate(219 213)" fill="#91dc5a"/>
    <g id="email-2" data-name="email" transform="translate(231 183.686)">
      <g id="Group_7" data-name="Group 7" transform="translate(0 46.314)">
        <path id="Path_6" data-name="Path 6" d="M46.239,57.406,24.229,46.474a1.536,1.536,0,0,0-1.366,0L.852,57.406A1.533,1.533,0,0,0,0,58.781V83.35a1.536,1.536,0,0,0,1.536,1.536h44.02a1.536,1.536,0,0,0,1.536-1.536V58.781A1.534,1.534,0,0,0,46.239,57.406ZM8.5,77.407a1.536,1.536,0,1,1-1.738-2.532l9.961-6.839L19.866,69.6Zm32.236-.4a1.536,1.536,0,0,1-2.135.4L27.226,69.6l3.148-1.564,9.961,6.839A1.536,1.536,0,0,1,40.731,77.01ZM23.546,68,4.988,58.781l18.558-9.217L42.1,58.781Z" transform="translate(0 -46.314)" fill="#fff"/>
      </g>
    </g>
  </g>
</svg>
