<?xml version="1.0" encoding="UTF-8"?>
<svg xmlns="http://www.w3.org/2000/svg" xmlns:xlink="http://www.w3.org/1999/xlink" width="72px" height="72px" viewBox="0 0 72 72" version="1.1">
<g id="surface1">
<path style=" stroke:none;fill-rule:nonzero;fill:rgb(100%,100%,100%);fill-opacity:1;" d="M 35.90625 0 C 16.078125 0 0 16.078125 0 35.90625 C 0 55.738281 16.078125 71.816406 35.90625 71.816406 C 55.738281 71.816406 71.816406 55.738281 71.816406 35.90625 C 71.816406 16.078125 55.738281 0 35.90625 0 Z M 40.039062 47.835938 C 36.71875 47.835938 33.59375 46.039062 32.523438 44 C 32.523438 44 30.738281 51.085938 30.363281 52.453125 C 29.03125 57.289062 25.113281 62.125 24.808594 62.519531 C 24.59375 62.796875 24.125 62.710938 24.078125 62.34375 C 23.996094 61.726562 22.992188 55.628906 24.171875 50.65625 C 24.757812 48.15625 28.125 33.894531 28.125 33.894531 C 28.125 33.894531 27.144531 31.929688 27.144531 29.027344 C 27.144531 24.46875 29.789062 21.066406 33.078125 21.066406 C 35.875 21.066406 37.226562 23.164062 37.226562 25.683594 C 37.226562 28.496094 35.433594 32.703125 34.511719 36.597656 C 33.738281 39.859375 36.144531 42.523438 39.363281 42.523438 C 45.191406 42.523438 49.113281 35.039062 49.113281 26.167969 C 49.113281 19.425781 44.578125 14.378906 36.316406 14.378906 C 26.988281 14.378906 21.171875 21.339844 21.171875 29.113281 C 21.171875 31.789062 21.964844 33.683594 23.203125 35.144531 C 23.769531 35.816406 23.851562 36.085938 23.644531 36.859375 C 23.496094 37.425781 23.160156 38.785156 23.019531 39.324219 C 22.8125 40.105469 22.183594 40.382812 21.476562 40.097656 C 17.179688 38.34375 15.179688 33.636719 15.179688 28.34375 C 15.179688 19.609375 22.546875 9.128906 37.164062 9.128906 C 48.90625 9.128906 56.636719 17.628906 56.636719 26.75 C 56.636719 38.820312 49.925781 47.835938 40.039062 47.835938 Z M 40.039062 47.835938 "/>
</g>
</svg>
