<?xml version="1.0" encoding="UTF-8"?>
<svg xmlns="http://www.w3.org/2000/svg" xmlns:xlink="http://www.w3.org/1999/xlink" width="72px" height="72px" viewBox="0 0 72 72" version="1.1">
<g id="surface1">
<path style=" stroke:none;fill-rule:nonzero;fill:rgb(100%,100%,100%);fill-opacity:1;" d="M 62.941406 7.191406 L 52.152344 7.191406 C 47.191406 7.191406 43.160156 11.230469 43.160156 16.183594 L 43.160156 26.976562 C 43.160156 31.929688 47.191406 35.964844 52.152344 35.964844 L 62.941406 35.964844 C 63.554688 35.964844 64.15625 35.902344 64.738281 35.78125 L 64.738281 43.160156 C 64.738281 51.09375 58.285156 57.546875 50.351562 57.546875 L 46.757812 57.546875 C 44.765625 57.546875 43.160156 59.15625 43.160156 61.140625 C 43.160156 63.128906 44.765625 64.738281 46.757812 64.738281 L 50.351562 64.738281 C 62.253906 64.738281 71.933594 55.0625 71.933594 43.160156 L 71.933594 16.183594 C 71.933594 11.230469 67.902344 7.191406 62.941406 7.191406 Z M 62.941406 7.191406 "/>
<path style=" stroke:none;fill-rule:nonzero;fill:rgb(100%,100%,100%);fill-opacity:1;" d="M 19.78125 7.191406 L 8.992188 7.191406 C 4.03125 7.191406 0 11.230469 0 16.183594 L 0 26.976562 C 0 31.929688 4.03125 35.964844 8.992188 35.964844 L 19.78125 35.964844 C 20.394531 35.964844 20.996094 35.902344 21.578125 35.78125 L 21.578125 43.160156 C 21.578125 51.09375 15.128906 57.546875 7.195312 57.546875 L 3.597656 57.546875 C 1.609375 57.546875 0 59.15625 0 61.140625 C 0 63.128906 1.609375 64.738281 3.597656 64.738281 L 7.195312 64.738281 C 19.09375 64.738281 28.773438 55.0625 28.773438 43.160156 L 28.773438 16.183594 C 28.773438 11.230469 24.742188 7.191406 19.78125 7.191406 Z M 19.78125 7.191406 "/>
</g>
</svg>
