<svg xmlns="http://www.w3.org/2000/svg" width="509.777" height="512.001" viewBox="0 0 509.777 512.001">
  <g id="whatsapp" transform="translate(0 0.001)">
    <path id="Path_2" data-name="Path 2" d="M10.894,512A10.895,10.895,0,0,1,.387,498.23L33.672,376.683A254.053,254.053,0,0,1,2.039,253.788C2.1,113.847,115.98,0,255.91,0A253.886,253.886,0,0,1,509.777,253.992c-.062,139.945-113.945,253.8-253.867,253.8H255.8a254.383,254.383,0,0,1-117.469-28.844l-124.676,32.7a10.957,10.957,0,0,1-2.762.355Zm0,0" fill="#e5e5e5"/>
    <path id="Path_3" data-name="Path 3" d="M10.894,501.105,45.363,375.234a242.471,242.471,0,0,1-32.43-121.441C12.988,119.859,121.981,10.9,255.911,10.9A242.989,242.989,0,0,1,498.883,253.988C498.825,387.918,389.817,496.9,255.91,496.9H255.8a242.771,242.771,0,0,1-116.1-29.57Zm134.77-77.75,7.379,4.371a201.679,201.679,0,0,0,102.789,28.148h.078c111.305,0,201.9-90.578,201.945-201.9A201.959,201.959,0,0,0,255.985,51.922C144.59,51.922,54,142.488,53.958,253.809A201.351,201.351,0,0,0,84.833,361.254l4.8,7.641-20.406,74.5Zm0,0" fill="#fff"/>
    <path id="Path_4" data-name="Path 4" d="M19.344,492.625l33.277-121.52A234.06,234.06,0,0,1,21.309,253.871c.051-129.3,105.273-234.488,234.559-234.488A234.58,234.58,0,0,1,490.43,254.054c-.055,129.3-105.281,234.5-234.551,234.5h-.105a234.524,234.524,0,0,1-112.086-28.539Zm0,0" fill="#48be5d"/>
    <g id="Group_2" data-name="Group 2">
      <path id="Path_5" data-name="Path 5" d="M10.894,501.105,45.363,375.234a242.471,242.471,0,0,1-32.43-121.441C12.988,119.859,121.981,10.9,255.911,10.9A242.989,242.989,0,0,1,498.883,253.988C498.825,387.918,389.817,496.9,255.91,496.9H255.8a242.771,242.771,0,0,1-116.1-29.57Zm134.77-77.75,7.379,4.371a201.679,201.679,0,0,0,102.789,28.148h.078c111.305,0,201.9-90.578,201.945-201.9A201.959,201.959,0,0,0,255.985,51.922C144.59,51.922,54,142.488,53.958,253.809A201.351,201.351,0,0,0,84.833,361.254l4.8,7.641-20.406,74.5Zm0,0" fill="#fff"/>
      <path id="Path_6" data-name="Path 6" d="M195.184,152.246c-4.547-10.109-9.336-10.312-13.664-10.488-3.539-.152-7.59-.145-11.633-.145a22.311,22.311,0,0,0-16.187,7.6c-5.566,6.074-21.254,20.762-21.254,50.633s21.758,58.738,24.793,62.793,42,67.309,103.707,91.645c51.285,20.227,61.719,16.2,72.852,15.191s35.918-14.687,40.977-28.863,5.063-26.324,3.543-28.867c-1.52-2.527-5.566-4.047-11.637-7.082s-35.918-17.727-41.484-19.75-9.613-3.035-13.66,3.043S295.86,307.7,292.317,311.742s-7.086,4.566-13.156,1.527-25.625-9.449-48.82-30.133c-18.047-16.09-30.234-35.965-33.777-42.043s-.059-9.07,2.668-12.387c4.91-5.973,13.148-16.711,15.172-20.758s1.012-7.6-.5-10.637-13.32-33.059-18.715-45.066Zm0,0" fill="#fff" fill-rule="evenodd"/>
    </g>
  </g>
</svg>
