<?xml version="1.0" encoding="UTF-8"?>
<svg xmlns="http://www.w3.org/2000/svg" xmlns:xlink="http://www.w3.org/1999/xlink" width="72px" height="72px" viewBox="0 0 72 72" version="1.1">
<g id="surface1">
<path style=" stroke:none;fill-rule:nonzero;fill:rgb(14.509804%,82.745098%,40%);fill-opacity:1;" d="M 36 72 C 16.121094 72 0 55.878906 0 36 C 0 16.121094 16.121094 0 36 0 C 55.878906 0 72 16.121094 72 36 C 72 55.878906 55.878906 72 36 72 Z M 36 72 "/>
<path style=" stroke:none;fill-rule:evenodd;fill:rgb(100%,100%,100%);fill-opacity:1;" d="M 52.839844 19.238281 C 48.375 14.765625 42.429688 12.304688 36.101562 12.296875 C 23.0625 12.296875 12.441406 22.910156 12.441406 35.957031 C 12.441406 40.125 13.527344 44.199219 15.601562 47.785156 L 12.246094 60.046875 L 24.789062 56.757812 C 28.246094 58.644531 32.132812 59.636719 36.09375 59.636719 L 36.101562 59.636719 C 49.140625 59.636719 59.753906 49.023438 59.761719 35.976562 C 59.765625 29.65625 57.3125 23.710938 52.839844 19.238281 Z M 36.109375 55.640625 L 36.101562 55.640625 C 32.574219 55.640625 29.109375 54.691406 26.09375 52.898438 L 25.371094 52.472656 L 17.929688 54.425781 L 19.914062 47.167969 L 19.445312 46.425781 C 17.480469 43.292969 16.4375 39.679688 16.4375 35.957031 C 16.445312 25.113281 25.265625 16.292969 36.113281 16.292969 C 41.371094 16.292969 46.304688 18.34375 50.019531 22.0625 C 53.734375 25.777344 55.777344 30.722656 55.769531 35.972656 C 55.769531 46.820312 46.945312 55.640625 36.109375 55.640625 Z M 46.894531 40.910156 C 46.304688 40.613281 43.394531 39.183594 42.855469 38.988281 C 42.3125 38.792969 41.917969 38.691406 41.523438 39.28125 C 41.125 39.875 39.996094 41.207031 39.652344 41.601562 C 39.304688 41.996094 38.960938 42.046875 38.367188 41.753906 C 37.777344 41.457031 35.871094 40.832031 33.617188 38.816406 C 31.859375 37.246094 30.671875 35.308594 30.328125 34.71875 C 29.980469 34.128906 30.289062 33.804688 30.585938 33.507812 C 30.851562 33.242188 31.175781 32.816406 31.472656 32.472656 C 31.765625 32.125 31.867188 31.882812 32.0625 31.484375 C 32.257812 31.089844 32.164062 30.742188 32.011719 30.449219 C 31.859375 30.152344 30.679688 27.246094 30.191406 26.058594 C 29.707031 24.90625 29.226562 25.0625 28.859375 25.042969 C 28.511719 25.027344 28.117188 25.019531 27.726562 25.019531 C 27.332031 25.019531 26.691406 25.171875 26.152344 25.761719 C 25.609375 26.351562 24.085938 27.785156 24.085938 30.695312 C 24.085938 33.601562 26.199219 36.417969 26.496094 36.804688 C 26.792969 37.203125 30.664062 43.171875 36.597656 45.734375 C 38.007812 46.347656 39.109375 46.707031 39.96875 46.980469 C 41.386719 47.433594 42.675781 47.367188 43.691406 47.21875 C 44.828125 47.042969 47.1875 45.785156 47.679688 44.410156 C 48.167969 43.027344 48.167969 41.847656 48.023438 41.601562 C 47.878906 41.355469 47.484375 41.210938 46.894531 40.910156 Z M 46.894531 40.910156 "/>
</g>
</svg>
